<svg xmlns="http://www.w3.org/2000/svg" xmlns:xlink="http://www.w3.org/1999/xlink" width="500" zoomAndPan="magnify" viewBox="0 0 375 374.999991" height="500" preserveAspectRatio="xMidYMid meet" version="1.0"><defs><clipPath id="0b1de4f16e"><path d="M 0 37.632812 L 369 37.632812 L 369 339 L 0 339 Z M 0 37.632812 " clip-rule="nonzero"/></clipPath></defs><g clip-path="url(#0b1de4f16e)"><path fill="#ffffff" d="M -0.00390625 185.523438 C -0.0195312 194.359375 13.921875 203.242188 41.878906 212.652344 L 38.054688 212.652344 C 78.546875 215.496094 114.875 216.894531 147.210938 217.273438 L 186.914062 265.210938 L 183.523438 265.210938 C 178.472656 265.210938 174.402344 270.859375 174.402344 277.871094 C 174.402344 284.886719 178.472656 290.535156 183.523438 290.535156 L 207.882812 290.535156 L 240.996094 330.523438 L 266.859375 336.429688 C 291.265625 342.890625 280.609375 328.980469 279.472656 327.476562 C 241.609375 277.429688 220.03125 240.585938 221.632812 215.648438 C 251.53125 214.066406 288.65625 211.601562 306.984375 209.039062 L 343.816406 252.695312 L 362.367188 253.390625 L 337.914062 203.644531 C 345.789062 201.898438 350.46875 200.433594 352.03125 199.617188 C 374.960938 187.609375 373.128906 189.621094 352.183594 180.09375 C 350.578125 179.367188 346.269531 177.914062 339.175781 176.074219 L 363.003906 127.597656 L 344.453125 128.292969 L 309.472656 169.753906 C 291.457031 166.542969 254.171875 163.214844 224.222656 160.691406 C 221.949219 135.347656 242.742188 98.769531 277.867188 50.4375 C 286.632812 38.386719 278.917969 37.601562 271.34375 37.519531 L 241.648438 44.300781 L 209.695312 82.882812 L 183.238281 82.882812 C 178.34375 82.882812 174.402344 88.53125 174.402344 95.542969 C 174.402344 102.558594 178.34375 108.203125 183.238281 108.203125 L 188.726562 108.203125 L 148.671875 156.574219 C 117.039062 156.167969 81.507812 156.722656 41.878906 158.675781 C 13.996094 167.898438 0.015625 176.6875 -0.00390625 185.523438 Z M -0.00390625 185.523438 " fill-opacity="1" fill-rule="evenodd"/></g></svg>