<svg xmlns="http://www.w3.org/2000/svg" xmlns:xlink="http://www.w3.org/1999/xlink" width="500" zoomAndPan="magnify" viewBox="0 0 375 374.999991" height="500" preserveAspectRatio="xMidYMid meet" version="1.0"><defs><clipPath id="0b75fbc01a"><path d="M 275 224 L 335 224 L 335 283.40625 L 275 283.40625 Z M 275 224 " clip-rule="nonzero"/></clipPath><clipPath id="79f8a18bb5"><path d="M 53 224 L 113 224 L 113 283.40625 L 53 283.40625 Z M 53 224 " clip-rule="nonzero"/></clipPath><clipPath id="d41182e692"><path d="M 150 91.40625 L 226 91.40625 L 226 115 L 150 115 Z M 150 91.40625 " clip-rule="nonzero"/></clipPath></defs><path fill="#ffffff" d="M 341.726562 257.003906 C 343.9375 241.65625 334.015625 225.574219 319.765625 219.648438 C 293.652344 208.777344 265.300781 228.933594 268.035156 257.003906 L 119.613281 257.003906 C 121.828125 239.652344 109.714844 222.578125 92.957031 218.074219 C 68.109375 211.402344 44.753906 229.851562 45.402344 255.4375 L 17.585938 251.113281 C 15.589844 251.285156 13.261719 248.558594 12.105469 248.230469 C 8.214844 247.113281 4.972656 249.457031 1.917969 244.308594 C -0.328125 240.53125 -0.367188 227.0625 2.109375 223.382812 C 4.800781 219.382812 10.503906 220.941406 11.476562 219.5625 C 14.34375 209.890625 15.539062 198.945312 18.902344 189.480469 C 20.636719 184.585938 23.453125 180.574219 28.40625 178.605469 C 37.164062 175.125 54.238281 175.761719 59.945312 168.855469 C 68.984375 157.914062 78.511719 134.324219 90.1875 127.503906 C 100.382812 121.546875 111.773438 123.054688 123.03125 122.71875 C 159.816406 121.609375 200.789062 120.546875 237.488281 122.152344 C 248.925781 122.652344 256.027344 123.582031 264.125 132.097656 C 276.261719 144.867188 286.722656 160.246094 298.910156 173.089844 C 317.285156 178.933594 340.640625 179.339844 358.28125 186.886719 C 375.542969 194.269531 369.71875 212.550781 369.421875 227.488281 C 369.730469 229.089844 372.191406 229.191406 373.328125 230.898438 C 375.488281 234.15625 375.09375 246.023438 372.789062 249.140625 C 370.234375 252.597656 367.097656 251.226562 364.074219 252.445312 C 361.652344 253.421875 359.882812 257.011719 355.578125 257.011719 L 341.730469 257.011719 Z M 115.953125 132.621094 C 114.253906 133.515625 112.398438 132.960938 110.605469 133.277344 C 104.078125 134.417969 101.386719 136.703125 98.097656 142.199219 C 95.300781 146.882812 86.363281 162.902344 85.097656 167.347656 C 83.722656 172.160156 85.351562 175.921875 90.613281 176.519531 C 93.144531 176.808594 99.640625 176.855469 102.136719 176.546875 C 102.710938 176.476562 103.300781 176.578125 103.683594 176.003906 Z M 183.898438 132.621094 L 124.84375 132.621094 L 113.34375 176.515625 L 183.898438 176.257812 Z M 287.894531 177.046875 C 288.253906 176.574219 286.222656 174.25 285.789062 173.667969 C 278.144531 163.480469 267.050781 148.90625 258.378906 139.933594 C 252.332031 133.675781 245.335938 133 236.964844 132.601562 C 222.617188 131.921875 207.714844 133.15625 193.308594 132.628906 L 197.59375 176.15625 L 198.339844 177.011719 Z M 287.894531 177.046875 " fill-opacity="1" fill-rule="nonzero"/><g clip-path="url(#0b75fbc01a)"><path fill="#ffffff" d="M 302.945312 224.238281 C 338.363281 221.863281 346.042969 272.164062 314.140625 281.941406 C 271.53125 294.996094 259.488281 227.148438 302.945312 224.238281 Z M 302.945312 224.238281 " fill-opacity="1" fill-rule="nonzero"/></g><g clip-path="url(#79f8a18bb5)"><path fill="#ffffff" d="M 80.835938 224.238281 C 106.074219 222.667969 121.652344 251.292969 106.242188 271.59375 C 92.003906 290.347656 62.621094 285.703125 54.800781 263.546875 C 48.296875 245.113281 61.402344 225.445312 80.835938 224.238281 Z M 80.835938 224.238281 " fill-opacity="1" fill-rule="nonzero"/></g><g clip-path="url(#d41182e692)"><path fill="#ffffff" d="M 225.703125 114.855469 L 150.972656 114.855469 C 154.816406 108.527344 155.335938 92.691406 164.269531 91.832031 C 179.808594 92.914062 197.070312 90.484375 212.398438 91.839844 C 216.765625 92.222656 218.324219 94.015625 220.046875 97.777344 C 222.367188 102.832031 223.925781 109.5 225.703125 114.855469 Z M 225.703125 114.855469 " fill-opacity="1" fill-rule="nonzero"/></g></svg>