<svg xmlns="http://www.w3.org/2000/svg" xmlns:xlink="http://www.w3.org/1999/xlink" width="500" zoomAndPan="magnify" viewBox="0 0 375 374.999991" height="500" preserveAspectRatio="xMidYMid meet" version="1.0"><defs><clipPath id="a5ac6de88d"><path d="M 1 93.59375 L 371 93.59375 L 371 279 L 1 279 Z M 1 93.59375 " clip-rule="nonzero"/></clipPath></defs><g clip-path="url(#a5ac6de88d)"><path fill="#ffffff" d="M 5.359375 211.484375 L 33.0625 211.484375 L 33.0625 219.421875 L 5.359375 219.421875 C 0.164062 219.351562 0.164062 211.628906 5.359375 211.484375 Z M 30.898438 247.054688 L 33.0625 247.054688 L 33.0625 239.117188 L 30.898438 239.117188 C 25.707031 239.191406 25.707031 247.054688 30.898438 247.054688 Z M 5.359375 144.097656 L 17.265625 144.097656 C 22.457031 144.097656 22.457031 136.160156 17.265625 136.160156 L 5.359375 136.160156 C 0.164062 136.234375 0.164062 144.027344 5.359375 144.097656 Z M 31.835938 109.25 L 19.859375 109.25 C 14.667969 109.324219 14.667969 117.113281 19.859375 117.1875 L 31.835938 117.1875 C 37.105469 117.113281 37.105469 109.394531 31.835938 109.25 Z M 148.648438 113.507812 L 258.386719 113.507812 C 263.582031 113.433594 263.652344 105.644531 258.386719 105.570312 L 148.648438 105.570312 C 143.453125 105.644531 143.378906 113.363281 148.648438 113.507812 Z M 57.59375 101.53125 L 102.832031 101.53125 C 108.027344 101.53125 108.027344 93.59375 102.832031 93.59375 L 57.59375 93.59375 C 52.402344 93.664062 52.402344 101.457031 57.59375 101.53125 Z M 279.597656 269.566406 C 271.878906 269.636719 263.871094 269.636719 255.71875 269.636719 C 259.109375 281.398438 276.351562 281.328125 279.597656 269.566406 Z M 312.570312 269.492188 C 305.066406 269.566406 297.058594 269.566406 288.617188 269.566406 C 291.9375 281.398438 309.324219 281.328125 312.570312 269.492188 Z M 246.699219 269.636719 C 238.835938 269.710938 230.898438 269.710938 222.816406 269.710938 C 226.28125 281.398438 243.378906 281.253906 246.699219 269.636719 Z M 213.796875 269.710938 L 189.988281 269.78125 C 193.378906 281.328125 210.480469 281.253906 213.796875 269.710938 Z M 98.289062 269.925781 C 89.628906 270 81.691406 270 74.550781 270 C 78.15625 281.253906 94.753906 281.183594 98.289062 269.925781 Z M 65.316406 270 C 54.566406 270.070312 46.410156 270.070312 41.722656 270.070312 C 45.257812 281.253906 61.851562 281.253906 65.316406 270 Z M 208.890625 179.523438 C 212.210938 182.84375 216.613281 184.71875 221.300781 184.71875 L 304.488281 184.71875 C 293.019531 175.050781 277 157.445312 264.304688 149.507812 C 264.304688 149.507812 221.300781 149.507812 221.300781 149.507812 C 205.933594 149.148438 197.78125 168.917969 208.890625 179.523438 Z M 82.558594 149.4375 L 41.074219 149.4375 L 41.074219 180.605469 L 82.632812 180.605469 L 82.632812 149.4375 Z M 345.542969 261.414062 L 316.972656 261.558594 C 296.410156 261.628906 272.746094 261.703125 251.242188 261.703125 C 188.257812 261.917969 102.6875 261.992188 41.074219 262.0625 L 41.074219 247.054688 L 76.136719 247.054688 C 78.300781 247.054688 80.105469 245.25 80.105469 243.085938 C 80.105469 240.921875 78.300781 239.117188 76.136719 239.117188 L 41.074219 239.117188 L 41.074219 219.421875 L 70.003906 219.421875 C 72.242188 219.421875 73.972656 217.691406 73.972656 215.453125 C 73.972656 213.289062 72.242188 211.484375 70.003906 211.484375 L 41.074219 211.484375 L 41.074219 188.542969 L 86.597656 188.542969 C 88.761719 188.542969 90.566406 186.738281 90.566406 184.574219 L 90.566406 145.46875 C 90.566406 143.304688 88.761719 141.5 86.597656 141.5 L 41.074219 141.5 L 41.074219 130.75 L 202.328125 130.75 C 218.992188 130.75 235.300781 134.429688 250.234375 141.5 L 221.300781 141.5 C 187.535156 142.582031 187.609375 191.574219 221.300781 192.65625 L 315.890625 192.65625 C 323.320312 197.054688 331.183594 200.375 339.339844 202.539062 C 352.972656 206.292969 363.796875 215.960938 368.558594 228.875 C 374.835938 244.023438 361.777344 261.847656 345.542969 261.414062 Z M 179.3125 145.46875 C 179.3125 143.304688 177.578125 141.5 175.34375 141.5 L 109.328125 141.5 C 107.160156 141.5 105.359375 143.304688 105.359375 145.46875 L 105.359375 243.085938 C 105.359375 245.25 107.160156 247.054688 109.328125 247.054688 L 175.34375 247.054688 C 177.578125 247.054688 179.3125 245.25 179.3125 243.085938 Z M 146.265625 239.117188 L 171.300781 239.117188 L 171.300781 149.4375 L 146.265625 149.4375 Z M 113.222656 239.117188 L 138.332031 239.117188 L 138.332031 149.4375 L 113.222656 149.4375 Z M 113.222656 239.117188 " fill-opacity="1" fill-rule="nonzero"/></g></svg>