<svg xmlns="http://www.w3.org/2000/svg" xmlns:xlink="http://www.w3.org/1999/xlink" width="500" zoomAndPan="magnify" viewBox="0 0 375 374.999991" height="500" preserveAspectRatio="xMidYMid meet" version="1.0"><defs><g/><clipPath id="d493d090df"><rect x="0" width="331" y="0" height="231"/></clipPath></defs><rect x="-37.5" width="450" fill="#ffffff" y="-37.499999" height="449.999989" fill-opacity="1"/><rect x="-37.5" width="450" fill="#1a1d23" y="-37.499999" height="449.999989" fill-opacity="1"/><g transform="matrix(1, 0, 0, 1, 22, 72)"><g clip-path="url(#d493d090df)"><g fill="#dc2626" fill-opacity="1"><g transform="translate(0.788802, 180.431405)"><g><path d="M 61.921875 0 L 36.265625 0 L 36.265625 -99.671875 L 3.390625 -99.671875 L 3.390625 -121.03125 L 94.796875 -121.03125 L 94.796875 -99.671875 L 61.921875 -99.671875 Z M 61.921875 0 "/></g></g></g><g fill="#ffffff" fill-opacity="1"><g transform="translate(98.976777, 180.431405)"><g><path d="M 122.609375 0 L 89.984375 0 L 37.34375 -91.5625 L 36.59375 -91.5625 C 37.644531 -75.394531 38.171875 -63.859375 38.171875 -56.953125 L 38.171875 0 L 15.234375 0 L 15.234375 -121.03125 L 47.609375 -121.03125 L 100.171875 -30.375 L 100.75 -30.375 C 99.925781 -46.113281 99.515625 -57.238281 99.515625 -63.75 L 99.515625 -121.03125 L 122.609375 -121.03125 Z M 122.609375 0 "/></g></g></g><g fill="#ffffff" fill-opacity="1"><g transform="translate(236.806937, 180.431405)"><g><path d="M 86.671875 -33.609375 C 86.671875 -22.679688 82.738281 -14.070312 74.875 -7.78125 C 67.007812 -1.488281 56.070312 1.65625 42.0625 1.65625 C 29.144531 1.65625 17.71875 -0.769531 7.78125 -5.625 L 7.78125 -29.46875 C 15.945312 -25.832031 22.859375 -23.265625 28.515625 -21.765625 C 34.171875 -20.273438 39.347656 -19.53125 44.046875 -19.53125 C 49.671875 -19.53125 53.988281 -20.609375 57 -22.765625 C 60.007812 -24.921875 61.515625 -28.125 61.515625 -32.375 C 61.515625 -34.738281 60.847656 -36.84375 59.515625 -38.6875 C 58.191406 -40.539062 56.25 -42.320312 53.6875 -44.03125 C 51.125 -45.75 45.894531 -48.484375 38 -52.234375 C 30.601562 -55.710938 25.054688 -59.050781 21.359375 -62.25 C 17.660156 -65.457031 14.707031 -69.1875 12.5 -73.4375 C 10.289062 -77.6875 9.1875 -82.648438 9.1875 -88.328125 C 9.1875 -99.035156 12.816406 -107.453125 20.078125 -113.578125 C 27.335938 -119.703125 37.367188 -122.765625 50.171875 -122.765625 C 56.460938 -122.765625 62.460938 -122.019531 68.171875 -120.53125 C 73.890625 -119.039062 79.863281 -116.945312 86.09375 -114.25 L 77.8125 -94.296875 C 71.363281 -96.941406 66.023438 -98.785156 61.796875 -99.828125 C 57.578125 -100.878906 53.425781 -101.40625 49.34375 -101.40625 C 44.488281 -101.40625 40.765625 -100.273438 38.171875 -98.015625 C 35.578125 -95.753906 34.28125 -92.800781 34.28125 -89.15625 C 34.28125 -86.894531 34.800781 -84.921875 35.84375 -83.234375 C 36.894531 -81.554688 38.566406 -79.929688 40.859375 -78.359375 C 43.148438 -76.785156 48.570312 -73.957031 57.125 -69.875 C 68.4375 -64.46875 76.1875 -59.046875 80.375 -53.609375 C 84.570312 -48.171875 86.671875 -41.503906 86.671875 -33.609375 Z M 86.671875 -33.609375 "/></g></g></g></g></g></svg>