<?xml version="1.0" encoding="UTF-8"?>

<svg version="1.2" baseProfile="tiny" width="297mm" height="210mm" viewBox="0 0 29700 21000" preserveAspectRatio="xMidYMid" fill-rule="evenodd" stroke-width="28.222" stroke-linejoin="round" xmlns="http://www.w3.org/2000/svg" xmlns:xlink="http://www.w3.org/1999/xlink" xml:space="preserve">
 <g visibility="visible" id="MasterSlide_1_Standard">
  <desc>Master slide
  </desc>
  <rect fill="none" stroke="none" x="0" y="0" width="29700" height="21000"/>
 </g>
 <g visibility="visible" id="Slide_1_page1">
  <g>
   <rect fill="none" stroke="none" x="4423" y="1600" width="21878" height="19202"/>
   <defs>
    <radialGradient id="Gradient_1" gradientUnits="userSpaceOnUse" cx="15362" cy="11200.5" r="14554.426">
     <stop offset="0" stop-color="rgb(36,36,179)"/>
     <stop offset="1" stop-color="rgb(0,0,0)"/>
    </radialGradient>
   </defs>
   <path fill="url(#Gradient_1)" stroke="none" id="Drawing_1_0" d="M 5161,5200 L 12084,1600 11254,6215 12177,4185 15038,5569 15029,4442 24177,2062 22977,4277 25469,4277 22792,7969 25469,8061 23992,11108 26300,13877 23161,14338 21961,20800 20115,16646 12915,20523 8115,15907 5346,17292 5438,15907 4423,16000 5161,5200 Z"/>
  </g>
  <g>
   <path fill="rgb(255,255,255)" stroke="none" d="M 12360,7869 L 12761,8938 11603,8963 12360,7869 Z"/>
   <rect fill="none" stroke="none" x="11603" y="7869" width="1159" height="1095"/>
  </g>
  <g>
   <path fill="rgb(255,255,255)" stroke="none" d="M 5069,14062 L 5715,5662 11346,2616 10238,8524 10792,8524 12361,4924 12453,5662 9777,11939 11900,9816 11069,11385 9315,12585 10700,9077 9592,9077 10700,3539 8854,4647 8300,9170 7284,9170 8023,5108 6269,6124 5623,14062 6731,13231 6454,14708 7746,11939 6638,12770 7100,10554 8669,10554 6915,15262 9592,13416 8577,14523 12823,19231 13007,19877 8300,14985 6269,16185 6546,14893 5069,14062 Z"/>
   <rect fill="none" stroke="none" x="5069" y="2616" width="7939" height="17262"/>
  </g>
  <g>
   <path fill="rgb(255,255,255)" stroke="none" d="M 13008,19877 L 12731,19231 11346,15539 13562,13692 10885,14431 10608,13323 14762,12216 10977,11385 11900,9816 14208,11939 12362,5754 12362,4923 15500,6400 15500,4923 23346,2708 19192,4462 16054,5477 15869,10277 15131,10277 15039,6862 12731,5662 14577,11754 19285,11662 20023,11662 15777,13416 18085,15077 13562,18123 17069,15354 13839,16092 14116,14800 16146,14062 14485,14062 14762,13323 17992,12031 14946,12308 12177,16369 12731,18031 13562,18123 13008,19877 Z"/>
   <rect fill="none" stroke="none" x="10607" y="2708" width="12740" height="17170"/>
  </g>
  <g>
   <path fill="rgb(255,255,255)" stroke="none" d="M 13007,19877 L 13192,19231 20576,14985 17715,13508 21222,12123 21776,10277 18453,10462 22145,3446 19838,4277 16515,11846 16145,11846 19376,3908 23345,2708 18915,10092 23345,9908 23899,8985 20761,8985 23530,5200 22791,5200 22976,4739 24453,4739 21591,8523 24638,8523 23715,10369 22238,10462 21868,11754 21868,12216 18638,13416 19930,14154 20761,13877 21776,17662 22145,13508 24176,13139 22976,11846 21868,12216 21868,11754 23253,11292 25191,13508 22607,13877 21868,19415 20484,15723 13007,19877 Z"/>
   <rect fill="none" stroke="none" x="13007" y="2708" width="12185" height="17170"/>
  </g>
  <g>
   <path fill="rgb(255,255,255)" stroke="none" d="M 13192,18400 L 13192,19231 18084,15077 17069,15354 13192,18400 Z"/>
   <rect fill="none" stroke="none" x="13192" y="15077" width="4893" height="4155"/>
  </g>
  <g>
   <path fill="rgb(255,255,255)" stroke="none" d="M 23069,5201 L 22977,4739 21777,4739 21592,5201 23069,5201 Z"/>
   <rect fill="none" stroke="none" x="21592" y="4739" width="1478" height="463"/>
  </g>
  <g>
   <path fill="rgb(255,255,255)" stroke="none" d="M 5900,14524 L 5808,15354 6269,15354 6085,16277 7008,15724 6731,14800 6269,14708 5992,14154 5069,14062 4977,14985 5900,14524 Z"/>
   <rect fill="none" stroke="none" x="4977" y="14061" width="2032" height="2217"/>
  </g>
  <g>
   <path fill="rgb(0,0,102)" stroke="none" d="M 2500,7800 L 2100,7900 2000,8300 2200,8400 2900,9700 3500,9500 3500,9100 3300,9100 3000,7800 2500,7800 Z M 300,-300 L 700,200 800,500 1000,700 1300,1100 1600,1300 1700,1500 2200,1300 2600,1600 2900,1300 3400,1300 3600,1100 4000,1500 4000,3400 4800,1600 5200,2800 5700,2900 5600,3600 6200,3300 7100,3300 7700,2900 8300,2900 8500,2700 9500,3200 8900,2800 8500,3100 7700,3200 7200,3600 6400,3500 6200,4300 5600,3900 6100,4000 6200,3400 5400,3800 5400,3200 5100,3000 4700,1900 3900,4200 3900,1800 3600,1300 3500,1500 3100,1500 2800,1700 2400,1800 2600,2200 3000,2100 3300,1900 3600,1600 3200,2200 2700,2300 2500,2900 2600,3500 2600,3700 2900,4000 3000,5000 3400,5000 3800,5600 4200,5600 2600,7200 2500,7700 3100,7700 3400,8900 3700,9400 4000,10600 4200,10800 4300,11000 5300,17100 5900,17800 6200,17700 6500,17800 6800,17600 7300,17600 7400,18000 7600,17900 7800,18200 8100,18300 8200,18700 8700,20100 8200,19300 8000,18600 7600,18200 7500,18700 7500,18400 7200,17800 6900,17700 6600,17900 6800,18000 6700,18700 6600,18100 6400,18100 6300,17900 5900,18100 5700,18600 6200,19700 5500,18800 5700,18000 5200,17300 4300,11200 4100,11100 3800,11000 3800,10400 3600,9800 3400,10200 3600,9600 3200,10000 3000,10600 3300,11000 3200,11600 2600,12400 2600,13100 2300,13500 2500,13900 2600,13500 2600,14200 2900,14300 2800,15500 3400,17300 3200,16800 2900,17100 3000,16300 2500,15500 2500,14800 2300,14900 1900,15600 2100,14900 2600,14600 2400,14200 2000,13600 2400,13100 2400,12300 3000,11600 3000,11200 2700,10800 2900,10100 2700,9800 2400,9400 2100,9300 1800,9700 2000,9200 2300,9200 2200,8800 2100,8900 1900,8600 1700,8200 1300,8300 800,7500 1200,8100 1400,8100 1800,8100 2100,7300 2200,7600 2200,7100 4100,5800 3600,5800 3500,5400 3300,5300 3200,5300 2800,5200 2800,4200 2600,4000 2500,3800 2200,3000 2300,2700 2200,2300 2400,2500 2300,2000 2000,1700 1600,1700 1600,1500 1200,1300 1100,1000 800,900 600,500 600,300 200,-100 300,-300 Z"/>
   <path fill="none" stroke="rgb(0,0,0)" id="Drawing_9_0" stroke-linejoin="round" d="M 2500,7800 L 2100,7900 2000,8300 2200,8400 2900,9700 3500,9500 3500,9100 3300,9100 3000,7800 2500,7800 Z"/>
   <path fill="none" stroke="rgb(0,0,0)" id="Drawing_9_1" stroke-linejoin="round" d="M 300,-300 L 700,200 800,500 1000,700 1300,1100 1600,1300 1700,1500 2200,1300 2600,1600 2900,1300 3400,1300 3600,1100 4000,1500 4000,3400 4800,1600 5200,2800 5700,2900 5600,3600 6200,3300 7100,3300 7700,2900 8300,2900 8500,2700 9500,3200 8900,2800 8500,3100 7700,3200 7200,3600 6400,3500 6200,4300 5600,3900 6100,4000 6200,3400 5400,3800 5400,3200 5100,3000 4700,1900 3900,4200 3900,1800 3600,1300 3500,1500 3100,1500 2800,1700 2400,1800 2600,2200 3000,2100 3300,1900 3600,1600 3200,2200 2700,2300 2500,2900 2600,3500 2600,3700 2900,4000 3000,5000 3400,5000 3800,5600 4200,5600 2600,7200 2500,7700 3100,7700 3400,8900 3700,9400 4000,10600 4200,10800 4300,11000 5300,17100 5900,17800 6200,17700 6500,17800 6800,17600 7300,17600 7400,18000 7600,17900 7800,18200 8100,18300 8200,18700 8700,20100 8200,19300 8000,18600 7600,18200 7500,18700 7500,18400 7200,17800 6900,17700 6600,17900 6800,18000 6700,18700 6600,18100 6400,18100 6300,17900 5900,18100 5700,18600 6200,19700 5500,18800 5700,18000 5200,17300 4300,11200 4100,11100 3800,11000 3800,10400 3600,9800 3400,10200 3600,9600 3200,10000 3000,10600 3300,11000 3200,11600 2600,12400 2600,13100 2300,13500 2500,13900 2600,13500 2600,14200 2900,14300 2800,15500 3400,17300 3200,16800 2900,17100 3000,16300 2500,15500 2500,14800 2300,14900 1900,15600 2100,14900 2600,14600 2400,14200 2000,13600 2400,13100 2400,12300 3000,11600 3000,11200 2700,10800 2900,10100 2700,9800 2400,9400 2100,9300 1800,9700 2000,9200 2300,9200 2200,8800 2100,8900 1900,8600 1700,8200 1300,8300 800,7500 1200,8100 1400,8100 1800,8100 2100,7300 2200,7600 2200,7100 4100,5800 3600,5800 3500,5400 3300,5300 3200,5300 2800,5200 2800,4200 2600,4000 2500,3800 2200,3000 2300,2700 2200,2300 2400,2500 2300,2000 2000,1700 1600,1700 1600,1500 1200,1300 1100,1000 800,900 600,500 600,300 200,-100 300,-300 Z"/>
  </g>
  <g>
   <path fill="rgb(0,0,102)" stroke="none" d="M 27126,9293 L 27604,9246 27866,9638 27685,9824 26396,10939 25900,11600 25035,10935 25600,10500 26577,9488 27126,9293 Z M 28118,-600 L 27870,95 27875,458 27731,751 27555,1300 27302,1632 27268,1887 26643,1866 26318,2345 25874,2138 25325,2333 25029,2195 24742,2782 24260,2467 22734,1282 22600,2300 20695,-327 21100,400 20609,1524 20093,1464 19400,600 18889,902 18790,1274 18762,1892 17773,2242 16961,2044 16302,2277 16006,2139 14617,2753 15605,2403 16159,2571 17076,2368 17778,2604 18618,2185 19144,2971 19650,2305 19139,2608 18800,2000 19086,1412 19333,1109 19586,777 20318,1749 20800,2064 20900,1300 22324,3613 21100,800 22567,2555 22958,1566 24117,2761 24451,3007 24967,3067 25105,2411 25291,2587 25731,2432 26137,2531 26614,2483 26547,2992 26070,3040 25664,2941 25220,2734 25888,3226 26476,3139 26925,3709 27044,4395 27121,4611 25724,6056 25996,7174 25557,7329 25347,8132 24908,8288 26787,8685 27088,9186 26429,9419 24920,10612 24323,9973 24663,10582 25519,12722 25376,13016 25342,13270 25791,16112 26403,15333 25032,17109 24741,17334 24649,14641 24100,14836 24143,15306 23885,15276 23780,15677 23489,15902 23532,16373 23518,18077 23761,17020 23713,16187 24000,15600 24301,16100 24186,15776 24286,15012 24577,14788 24669,17481 24488,17666 24865,18383 24746,17697 24965,17619 24999,17364 26518,15657 26928,16119 26800,17500 27224,16257 26699,15471 25978,16289 25419,13486 26300,14500 25600,13300 25891,13076 25662,12428 24925,10974 26025,12057 26316,11832 26181,11379 26630,11949 26454,12497 26793,13105 27758,13735 28025,14490 28508,14805 28441,15314 28178,14922 28446,15677 28155,15902 29100,17400 28200,17600 28356,18394 28800,18600 28384,17776 29053,17041 28785,16285 29043,16315 29800,14900 29263,16238 28599,16109 28665,15599 28875,14796 28245,14412 27939,13549 27013,13028 26860,12596 27036,12048 26549,11370 26654,10969 27300,10800 28139,10756 28621,11071 28211,10609 27881,10726 27838,10256 27986,10324 28091,9923 28158,9414 28635,9366 28879,8308 28669,9111 28449,9189 28010,9345 27374,8598 27379,8961 27188,8421 27293,8020 25643,8270 25600,7800 25782,7614 25891,7575 26293,7312 25910,6233 26054,5939 27269,4680 27293,3700 27068,3415 27025,2945 26882,3238 26800,2660 27015,2219 27455,2064 27378,1848 27741,1477 27736,1114 28027,889 28094,380 28018,164 28304,-423 28118,-600 Z"/>
   <path fill="none" stroke="rgb(0,0,0)" id="Drawing_10_0" stroke-linejoin="round" d="M 27126,9293 L 27604,9246 27866,9638 27685,9824 26396,10939 25900,11600 25035,10935 25600,10500 26577,9488 27126,9293 Z"/>
   <path fill="none" stroke="rgb(0,0,0)" id="Drawing_10_1" stroke-linejoin="round" d="M 28118,-600 L 27870,95 27875,458 27731,751 27555,1300 27302,1632 27268,1887 26643,1866 26318,2345 25874,2138 25325,2333 25029,2195 24742,2782 24260,2467 22734,1282 22600,2300 20695,-327 21100,400 20609,1524 20093,1464 19400,600 18889,902 18790,1274 18762,1892 17773,2242 16961,2044 16302,2277 16006,2139 14617,2753 15605,2403 16159,2571 17076,2368 17778,2604 18618,2185 19144,2971 19650,2305 19139,2608 18800,2000 19086,1412 19333,1109 19586,777 20318,1749 20800,2064 20900,1300 22324,3613 21100,800 22567,2555 22958,1566 24117,2761 24451,3007 24967,3067 25105,2411 25291,2587 25731,2432 26137,2531 26614,2483 26547,2992 26070,3040 25664,2941 25220,2734 25888,3226 26476,3139 26925,3709 27044,4395 27121,4611 25724,6056 25996,7174 25557,7329 25347,8132 24908,8288 26787,8685 27088,9186 26429,9419 24920,10612 24323,9973 24663,10582 25519,12722 25376,13016 25342,13270 25791,16112 26403,15333 25032,17109 24741,17334 24649,14641 24100,14836 24143,15306 23885,15276 23780,15677 23489,15902 23532,16373 23518,18077 23761,17020 23713,16187 24000,15600 24301,16100 24186,15776 24286,15012 24577,14788 24669,17481 24488,17666 24865,18383 24746,17697 24965,17619 24999,17364 26518,15657 26928,16119 26800,17500 27224,16257 26699,15471 25978,16289 25419,13486 26300,14500 25600,13300 25891,13076 25662,12428 24925,10974 26025,12057 26316,11832 26181,11379 26630,11949 26454,12497 26793,13105 27758,13735 28025,14490 28508,14805 28441,15314 28178,14922 28446,15677 28155,15902 29100,17400 28200,17600 28356,18394 28800,18600 28384,17776 29053,17041 28785,16285 29043,16315 29800,14900 29263,16238 28599,16109 28665,15599 28875,14796 28245,14412 27939,13549 27013,13028 26860,12596 27036,12048 26549,11370 26654,10969 27300,10800 28139,10756 28621,11071 28211,10609 27881,10726 27838,10256 27986,10324 28091,9923 28158,9414 28635,9366 28879,8308 28669,9111 28449,9189 28010,9345 27374,8598 27379,8961 27188,8421 27293,8020 25643,8270 25600,7800 25782,7614 25891,7575 26293,7312 25910,6233 26054,5939 27269,4680 27293,3700 27068,3415 27025,2945 26882,3238 26800,2660 27015,2219 27455,2064 27378,1848 27741,1477 27736,1114 28027,889 28094,380 28018,164 28304,-423 28118,-600 Z"/>
  </g>
 </g>
</svg>